Cover :: 
http://i.minus.com/iKI4hJGKAK7VX.png


Screen :: 
http://i.minus.com/i3pAsRCeifIF0.png
 
http://i.minus.com/ibpuGqjtMa6Y0O.png
 
http://i.minus.com/ieXQXcWBX0S7E.png
 
http://i.minus.com/irWoXvR0ljqXN.png
 
http://i.minus.com/ixAOlNsHkrR78.jpg


General Info ::
Format                           : AVI
Format/Info                      : Audio Video Interleave
File size                        : 40.6 MiB
Duration                         : 1mn 47s
Overall bit rate                 : 3 158 Kbps


Video Info ::
ID                               : 0
Format                           : AVC
Format/Info                      : Advanced Video Codec
Format profile                   : High@L5.1
Format settings, CABAC           : Yes
Format settings, ReFrames        : 2 frames
Codec ID                         : H264
Duration                         : 10s 0ms
Bit rate                         : 2 828 Kbps
Width                            : 1 280 pixels
Height                           : 544 pixels
Display aspect ratio             : 2.35:1
Frame rate                       : 30.000 fps
Color space                      : YUV
Chroma subsampling               : 4:2:0
Bit depth                        : 8 bits
Scan type                        : Progressive
Bits/(Pixel*Frame)               : 0.135
Stream size                      : 36.3 MiB (89%)


Audio Info ::
ID                               : 1
Format                           : MPEG Audio
Format version                   : Version 1
Format profile                   : Layer 3
Codec ID                         : 55
Codec ID/Hint                    : MP3
Duration                         : 1mn 47s
Bit rate mode                    : Constant
Bit rate                         : 320 Kbps
Channel(s)                       : 2 channels
Sampling rate                    : 48.0 KHz
Compression mode                 : Lossy
Stream size                      : 4.11 MiB (10%)